<svg xmlns="http://www.w3.org/2000/svg" xmlns:xlink="http://www.w3.org/1999/xlink" width="256" zoomAndPan="magnify" viewBox="0 0 192 192.749996" height="257" preserveAspectRatio="xMidYMid meet" version="1.0"><defs><g/><clipPath id="adfc566c86"><path d="M 0.125 0 L 191.875 0 L 191.875 192.5 L 0.125 192.5 Z M 0.125 0 " clip-rule="nonzero"/></clipPath><clipPath id="0fcd537c6c"><path d="M 0.125 0.375 L 191.875 0.375 L 191.875 192.125 L 0.125 192.125 Z M 0.125 0.375 " clip-rule="nonzero"/></clipPath><clipPath id="fe7e195880"><rect x="0" width="180" y="0" height="144"/></clipPath></defs><g clip-path="url(#adfc566c86)"><path fill="#ffffff" d="M 0.125 0 L 191.875 0 L 191.875 192.5 L 0.125 192.5 Z M 0.125 0 " fill-opacity="1" fill-rule="nonzero"/><path fill="#ffffff" d="M 0.125 0 L 191.875 0 L 191.875 192.5 L 0.125 192.5 Z M 0.125 0 " fill-opacity="1" fill-rule="nonzero"/></g><g clip-path="url(#0fcd537c6c)"><path stroke-linecap="butt" transform="matrix(0.749028, 0, 0, 0.749028, 0.124354, 0.374514)" fill-opacity="1" fill="#000000" fill-rule="nonzero" stroke-linejoin="miter" d="M 0.000862022 0.00064854 L 255.999149 0.00064854 L 255.999149 255.998935 L 0.000862022 255.998935 Z M 0.000862022 0.00064854 " stroke="#000000" stroke-width="26" stroke-opacity="1" stroke-miterlimit="4"/></g><g transform="matrix(1, 0, 0, 1, 6, 26)"><g clip-path="url(#fe7e195880)"><g fill="#00ff41" fill-opacity="1"><g transform="translate(1.108291, 112.173172)"><g><path d="M 30.125 -1.65625 L 12.375 -45.9375 C 12.207031 -46.445312 12.035156 -47.039062 11.859375 -47.71875 C 11.691406 -48.40625 11.609375 -48.960938 11.609375 -49.390625 L 11.609375 -85.765625 C 11.609375 -86.273438 11.800781 -86.695312 12.1875 -87.03125 C 12.570312 -87.375 12.976562 -87.546875 13.40625 -87.546875 L 19.53125 -87.546875 C 20.71875 -87.546875 21.3125 -86.953125 21.3125 -85.765625 L 21.3125 -51.3125 C 21.3125 -50.800781 21.375 -50.203125 21.5 -49.515625 C 21.632812 -48.835938 21.785156 -48.285156 21.953125 -47.859375 L 37.265625 -9.703125 L 51.6875 -9.703125 L 67 -47.859375 C 67.175781 -48.285156 67.328125 -48.835938 67.453125 -49.515625 C 67.578125 -50.203125 67.640625 -50.800781 67.640625 -51.3125 L 67.640625 -85.765625 C 67.640625 -86.953125 68.234375 -87.546875 69.421875 -87.546875 L 75.546875 -87.546875 C 76.742188 -87.546875 77.34375 -86.953125 77.34375 -85.765625 L 77.34375 -49.390625 C 77.34375 -48.960938 77.273438 -48.40625 77.140625 -47.71875 C 77.015625 -47.039062 76.867188 -46.445312 76.703125 -45.9375 L 58.96875 -1.65625 C 58.789062 -1.226562 58.445312 -0.84375 57.9375 -0.5 C 57.425781 -0.164062 56.914062 0 56.40625 0 L 32.546875 0 C 32.035156 0 31.546875 -0.164062 31.078125 -0.5 C 30.609375 -0.84375 30.289062 -1.226562 30.125 -1.65625 Z M 30.125 -1.65625 "/></g></g></g><g fill="#00ff41" fill-opacity="1"><g transform="translate(89.929567, 112.173172)"><g><path d="M 64.96875 -86.015625 C 65.21875 -86.441406 65.617188 -86.800781 66.171875 -87.09375 C 66.722656 -87.394531 67.253906 -87.546875 67.765625 -87.546875 L 75.546875 -87.546875 C 76.742188 -87.546875 77.34375 -86.953125 77.34375 -85.765625 L 77.34375 -1.78125 C 77.34375 -0.59375 76.742188 0 75.546875 0 L 69.421875 0 C 68.234375 0 67.640625 -0.59375 67.640625 -1.78125 L 67.640625 -75.421875 L 49.140625 -45.3125 C 48.878906 -44.882812 48.472656 -44.519531 47.921875 -44.21875 C 47.367188 -43.925781 46.878906 -43.78125 46.453125 -43.78125 L 42.625 -43.78125 C 42.113281 -43.78125 41.582031 -43.925781 41.03125 -44.21875 C 40.476562 -44.519531 40.070312 -44.882812 39.8125 -45.3125 L 21.3125 -75.421875 L 21.3125 -1.78125 C 21.3125 -0.59375 20.71875 0 19.53125 0 L 13.53125 0 C 12.332031 0 11.734375 -0.59375 11.734375 -1.78125 L 11.734375 -85.765625 C 11.734375 -86.953125 12.332031 -87.546875 13.53125 -87.546875 L 21.3125 -87.546875 C 21.738281 -87.546875 22.226562 -87.394531 22.78125 -87.09375 C 23.332031 -86.800781 23.738281 -86.441406 24 -86.015625 L 44.546875 -55.390625 Z M 64.96875 -86.015625 "/></g></g></g></g></g></svg>