<svg xmlns="http://www.w3.org/2000/svg" xmlns:xlink="http://www.w3.org/1999/xlink" width="256" zoomAndPan="magnify" viewBox="0 0 192 192.749996" height="257" preserveAspectRatio="xMidYMid meet" version="1.0"><defs><g/><clipPath id="b2646c7b29"><path d="M 0.125 0 L 191.875 0 L 191.875 192.5 L 0.125 192.5 Z M 0.125 0 " clip-rule="nonzero"/></clipPath><clipPath id="ee40a374e3"><path d="M 0.125 0.375 L 191.875 0.375 L 191.875 192.125 L 0.125 192.125 Z M 0.125 0.375 " clip-rule="nonzero"/></clipPath><clipPath id="2df2230b77"><path d="M 0.125 0 L 191.875 0 L 191.875 191.75 L 0.125 191.75 Z M 0.125 0 " clip-rule="nonzero"/></clipPath><clipPath id="86f0a3a46a"><rect x="0" width="168" y="0" height="134"/></clipPath></defs><g clip-path="url(#b2646c7b29)"><path fill="#ffffff" d="M 0.125 0 L 191.875 0 L 191.875 192.5 L 0.125 192.5 Z M 0.125 0 " fill-opacity="1" fill-rule="nonzero"/><path fill="#ffffff" d="M 0.125 0 L 191.875 0 L 191.875 192.5 L 0.125 192.5 Z M 0.125 0 " fill-opacity="1" fill-rule="nonzero"/></g><g clip-path="url(#ee40a374e3)"><path stroke-linecap="butt" transform="matrix(0.749028, 0, 0, 0.749028, 0.124354, 0.374514)" fill-opacity="1" fill="#000000" fill-rule="nonzero" stroke-linejoin="miter" d="M 0.000862022 0.00064854 L 255.999149 0.00064854 L 255.999149 255.998935 L 0.000862022 255.998935 Z M 0.000862022 0.00064854 " stroke="#000000" stroke-width="26" stroke-opacity="1" stroke-miterlimit="4"/></g><g clip-path="url(#2df2230b77)"><path stroke-linecap="butt" transform="matrix(0.749028, 0, 0, 0.749028, 0.124354, 0)" fill="none" stroke-linejoin="miter" d="M 0.000862022 0 L 255.999149 0 L 255.999149 255.998287 L 0.000862022 255.998287 Z M 0.000862022 0 " stroke="#00ff00" stroke-width="16" stroke-opacity="1" stroke-miterlimit="4"/></g><g transform="matrix(1, 0, 0, 1, 12, 31)"><g clip-path="url(#86f0a3a46a)"><g fill="#00ff00" fill-opacity="1"><g transform="translate(1.500499, 104.323118)"><g><path d="M 27.953125 -1.546875 L 11.484375 -42.640625 C 11.328125 -43.109375 11.171875 -43.660156 11.015625 -44.296875 C 10.859375 -44.929688 10.78125 -45.441406 10.78125 -45.828125 L 10.78125 -79.59375 C 10.78125 -80.0625 10.957031 -80.453125 11.3125 -80.765625 C 11.664062 -81.085938 12.039062 -81.25 12.4375 -81.25 L 18.125 -81.25 C 19.226562 -81.25 19.78125 -80.695312 19.78125 -79.59375 L 19.78125 -47.609375 C 19.78125 -47.140625 19.835938 -46.585938 19.953125 -45.953125 C 20.078125 -45.316406 20.21875 -44.804688 20.375 -44.421875 L 34.578125 -9 L 47.96875 -9 L 62.1875 -44.421875 C 62.34375 -44.804688 62.476562 -45.316406 62.59375 -45.953125 C 62.707031 -46.585938 62.765625 -47.140625 62.765625 -47.609375 L 62.765625 -79.59375 C 62.765625 -80.695312 63.320312 -81.25 64.4375 -81.25 L 70.109375 -81.25 C 71.210938 -81.25 71.765625 -80.695312 71.765625 -79.59375 L 71.765625 -45.828125 C 71.765625 -45.441406 71.707031 -44.929688 71.59375 -44.296875 C 71.476562 -43.660156 71.34375 -43.109375 71.1875 -42.640625 L 54.71875 -1.546875 C 54.5625 -1.148438 54.242188 -0.789062 53.765625 -0.46875 C 53.296875 -0.15625 52.820312 0 52.34375 0 L 30.203125 0 C 29.722656 0 29.265625 -0.15625 28.828125 -0.46875 C 28.398438 -0.789062 28.109375 -1.148438 27.953125 -1.546875 Z M 27.953125 -1.546875 "/></g></g></g><g fill="#00ff00" fill-opacity="1"><g transform="translate(83.934629, 104.323118)"><g><path d="M 60.28125 -79.828125 C 60.519531 -80.222656 60.894531 -80.554688 61.40625 -80.828125 C 61.925781 -81.109375 62.421875 -81.25 62.890625 -81.25 L 70.109375 -81.25 C 71.210938 -81.25 71.765625 -80.695312 71.765625 -79.59375 L 71.765625 -1.65625 C 71.765625 -0.550781 71.210938 0 70.109375 0 L 64.4375 0 C 63.320312 0 62.765625 -0.550781 62.765625 -1.65625 L 62.765625 -70 L 45.59375 -42.046875 C 45.363281 -41.648438 44.988281 -41.3125 44.46875 -41.03125 C 43.957031 -40.757812 43.503906 -40.625 43.109375 -40.625 L 39.5625 -40.625 C 39.082031 -40.625 38.585938 -40.757812 38.078125 -41.03125 C 37.566406 -41.3125 37.191406 -41.648438 36.953125 -42.046875 L 19.78125 -70 L 19.78125 -1.65625 C 19.78125 -0.550781 19.226562 0 18.125 0 L 12.546875 0 C 11.441406 0 10.890625 -0.550781 10.890625 -1.65625 L 10.890625 -79.59375 C 10.890625 -80.695312 11.441406 -81.25 12.546875 -81.25 L 19.78125 -81.25 C 20.175781 -81.25 20.628906 -81.109375 21.140625 -80.828125 C 21.648438 -80.554688 22.023438 -80.222656 22.265625 -79.828125 L 41.328125 -51.40625 Z M 60.28125 -79.828125 "/></g></g></g></g></g></svg>